# xmcd
#
# Track frame offsets: 
#        150
#        12528
#        24063
#        37291
#        47823
#        67014
#        78180
#        89590
#        97914
#        110689
#        128034
#        145720
#        156024
#
# Disc length: 2262 seconds
#
# Revision: 9
# Processed by: cddbd v1.5.2PL0 Copyright (c) Steve Scherf et al.
# Submitted via: ExactAudioCopyFreeDBPlugin 1.0
#
DISCID=a608d40d
DTITLE=Nina Simone - 1967 - Sings the Blues
DYEAR=1967
DGENRE=Blues
TTITLE0=Do I Move You
TTITLE1=Day and Night
TTITLE2=In the Dark
TTITLE3=Real Real
TTITLE4=My Man's Gone Now
TTITLE5=Backlash Blues
TTITLE6=I Want a Little Sugar in My Bowl
TTITLE7=Buck
TTITLE8=Since I Fell for You
TTITLE9=The House of the Rising Sun
TTITLE10=Blues for Mama
TTITLE11=Do I Move You
TTITLE12=Whatever I Am
EXTD=YEAR: 1967
EXTT0=
EXTT1=
EXTT2=
EXTT3=
EXTT4=
EXTT5=
EXTT6=
EXTT7=
EXTT8=
EXTT9=
EXTT10=
EXTT11=
EXTT12=
PLAYORDER=
